# AST/ASF file generated using VICON BodyLanguage
# -----------------------------------------------
:version 1.10
:name VICON
:units
  mass 1.0
  length 0.45
  angle deg
:documentation
   .ast/.asf automatically generated from VICON data using
   VICON BodyBuilder and BodyLanguage model FoxedUp or BRILLIANT.MOD
:root
   order TX TY TZ RX RY RZ
   axis XYZ
   position 0 0 0  
   orientation 0 0 0 
:bonedata
  begin
     id 1 
     name lhipjoint
     direction 0.535335 -0.74333 0.401095 
     length 2.04549 
     axis 0 0 0  XYZ
  end
  begin
     id 2 
     name lfemur
     direction 0.34202 -0.939693 0  
     length 6.95643  
     axis 0 0 20  XYZ
    dof rx ry rz
    limits (-160.0 20.0)
           (-70.0 70.0)
           (-60.0 70.0)
  end
  begin
     id 3 
     name ltibia
     direction 0.34192 -0.939729 0   
     length 5.55969   
     axis 0 0 20   XYZ
    dof rx
    limits (-10.0 170.0)
  end
  begin
     id 4 
     name lfoot
     direction 0.216943 -0.596046 0.773088   
     length 2.27918   
     axis -90 7.62852e-016 20   XYZ
    dof rx rz
    limits (-45.0 90.0)
           (-70.0 20.0)
  end
  begin
     id 5 
     name ltoes
     direction 1.53519e-011 -4.21748e-011 1   
     length 1.05562   
     axis -90 7.62852e-016 20   XYZ
    dof rx
    limits (-90.0 20.0)
  end
  begin
     id 6 
     name rhipjoint
     direction -0.576368 -0.719173 0.38806   
     length 2.1142  
     axis 0 0 0  XYZ 
  end
  begin
     id 7 
     name rfemur
     direction -0.34202 -0.939693 0   
     length 7.07928   
     axis 0 0 -20   XYZ
    dof rx ry rz
    limits (-160.0 20.0)
           (-70.0 70.0)
           (-70.0 60.0)
  end
  begin
     id 8 
     name rtibia
     direction -0.34202 -0.939693 0   
     length 5.79974   
     axis 0 0 -20   XYZ
    dof rx
    limits (-10.0 170.0)
 end
 begin
     id 9 
     name rfoot
     direction -0.189288 -0.520065 0.832888   
     length 2.42173  
     axis -90 -7.62852e-016 -20   XYZ
    dof rx rz
    limits (-45.0 90.0)
           (-20.0 70.0)
  end
  begin
     id 10 
     name rtoes
     direction -1.53574e-011 -4.21658e-011 1   
     length 1.14469   
     axis -90 -7.62852e-016 -20   XYZ
    dof rx
    limits (-90.0 20.0)
  end
  begin
     id 11 
     name lowerback
     direction -0.00135702 0.993803 0.111144   
     length 1.91308   
     axis 0 0 0   XYZ
    dof rx ry rz
    limits (-20.0 45.0)
           (-30.0 30.0)
           (-30.0 30.0)
  end
  begin
     id 12 
     name upperback
     direction -0.0056745 0.999813 0.0184631   
     length 1.9212   
     axis 0 0 0   XYZ
    dof rx ry rz
    limits (-20.0 45.0)
           (-30.0 30.0)
           (-30.0 30.0)
  end
  begin
     id 13 
     name thorax
     direction -0.00733434 0.999426 -0.0330788   
     length 1.94196   
     axis 0 0 0   XYZ
    dof rx ry rz
    limits (-20.0 45.0)
           (-30.0 30.0)
           (-30.0 30.0)
  end
  begin
     id 14 
     name lowerneck
     direction 0.0563074 0.996944 -0.0541571   
     length 2.34257   
     axis 0 0 0   XYZ
    dof rx ry rz
    limits (-20.0 45.0)
           (-30.0 30.0)
           (-30.0 30.0)
  end
  begin
     id 15 
     name upperneck
     direction -0.0544519 0.976166 -0.210085   
     length 2.32506   
     axis 0 0 0   XYZ
    dof rx ry rz
    limits (-20.0 45.0)
           (-30.0 30.0)
           (-30.0 30.0)
  end
  begin
     id 16
     name head
     direction -0.0226035 0.997615 -0.0652205  
     length 2.3648  
     axis 0 0 0   XYZ
    dof rx ry rz
    limits (-20.0 45.0)
           (-30.0 30.0)
           (-30.0 30.0)
  end
  begin
     id 17 
     name lclavicle
     direction 0.92109 0.381297 -0.0787716  
     length 4.0487  
     axis 0 0 0   XYZ
    dof ry rz
    limits (-20.0 10.0)
           (0.0 20.0)
  end
  begin
     id 18 
     name lhumerus
     direction 1 -4.48986e-011 3.56724e-027   
     length 4.94991   
     axis 180 -30 -90   XYZ
    dof rx ry rz
    limits (-60.0 90.0)
           (-90.0 90.0)
           (-90.0 90.0)
  end
  begin
     id 19
     name lradius
     direction 1 -4.48981e-011 8.62147e-027   
     length 2.7606   
     axis 180 -30 -90   XYZ
    dof rx
    limits (-10.0 170.0)
  end
  begin
     id 20
     name lwrist
     direction 1 -4.48989e-011 1.59799e-026   
     length 1.3803   
     axis -1.17785e-014 90 90   XYZ
    dof ry
    limits (-180.0 0.0)
 end
  begin
     id 21 
     name lhand
     direction 1 -4.48896e-011 3.19599e-026   
     length 0.843936   
     axis -2.03931e-014 90 90   XYZ
    dof rx rz
    limits (-90.0 90.0)
           (-45.0 45.0)
  end
  begin
     id 22 
     name lfingers
     direction 1 -4.48887e-011 6.39197e-026   
     length 0.680403   
     axis -4.07862e-014 90 90   XYZ
    dof rx
    limits (0.0 90.0)
  end
  begin
     id 23
     name lthumb
     direction 0.707107 -6.348e-011 0.707107   
     length 0.976926   
     axis -90 45 2.85299e-015   XYZ
    dof rx rz
    limits (-45.0 45.0)
           (-45.0 45.0)
  end
  begin
     id 24 
     name rclavicle
     direction -0.951104 0.307692 -0.026953   
     length 4.21801  
     axis 0 0 0   XYZ 
    dof ry rz
    limits (-10.0 20.0)
           (-20.0 0.0)
  end
  begin
     id 25 
     name rhumerus
     direction -1 -4.4896e-011 -1.8171e-018  
     length 4.32982   
     axis 180 30 90   XYZ
    dof rx ry rz
    limits (-90.0 60.0)
           (-90.0 90.0)
           (-90.0 90.0)
  end
  begin
     id 26 
     name rradius
     direction -1 -4.48959e-011 8.25165e-027   
     length 3.20057   
     axis 180 30 90   XYZ
    dof rx
    limits (-10.0 170.0)
  end
  begin
     id 27 
     name rwrist
     direction -1 -4.48997e-011 1.59799e-026   
     length 1.60029   
     axis -1.17785e-014 -90 -90   XYZ
    dof ry
    limits (-180.0 0.0)
  end
  begin
     id 28
     name rhand
     direction -1 -4.49023e-011 3.19599e-026   
     length 0.960433   
     axis -2.03931e-014 -90 -90   XYZ
    dof rx rz
    limits (-90.0 90.0)
           (-45.0 45.0)
  end
  begin
     id 29
     name rfingers
     direction -1 -4.48802e-011 6.39197e-026   
     length 0.774326   
     axis -4.07862e-014 -90 -90   XYZ
    dof rx
    limits (0.0 90.0)
  end
  begin
     id 30
     name rthumb
     direction -0.707107 -6.34876e-011 0.707107   
     length 1.11178   
     axis -90 -45 -2.85299e-015   XYZ
    dof rx rz
    limits (-45.0 45.0)
           (-45.0 45.0)
  end
:hierarchy
  begin
    root lhipjoint rhipjoint lowerback
    lhipjoint lfemur
    lfemur ltibia
    ltibia lfoot
    lfoot ltoes
    rhipjoint rfemur
    rfemur rtibia
    rtibia rfoot
    rfoot rtoes
    lowerback upperback
    upperback thorax
    thorax lowerneck lclavicle rclavicle
    lowerneck upperneck
    upperneck head
    lclavicle lhumerus
    lhumerus lradius
    lradius lwrist
    lwrist lhand lthumb
    lhand lfingers
    rclavicle rhumerus
    rhumerus rradius
    rradius rwrist
    rwrist rhand rthumb
    rhand rfingers
end

#!OML:ASF C:\KaitlinTest1\Natural Motions\Nikki\Session 2\Nikki.ASF
:FULLY-SPECIFIED
:DEGREES
259
root -18.9106 16.6324 5.01692 -153.341 85.7655 -163.123
lowerback -13.2754 -1.6867 -0.081175
upperback -3.9685 -2.02157 -0.513765
thorax 3.24963 -0.927732 -0.804513
lowerneck -1.90968 1.6009 8.48517
upperneck 27.2493 3.82653 -5.53126
head 9.07247 2.5331 -2.98962
rclavicle -7.62836e-015 -8.34896e-015
rhumerus -42.4633 -22.2827 -79.1656
rradius 18.3984
rwrist 29.2527
rhand -35.9062 3.24742
rfingers 7.12502
rthumb -9.01929 -26.5398
lclavicle -7.62836e-015 -8.34896e-015
lhumerus -42.2216 16.0651 80.5142
lradius 23.9258
lwrist -39.5369
lhand -33.1933 3.49783
lfingers 7.12502
lthumb -6.40079 33.3811
rfemur -7.54041 -16.3891 20.9522
rtibia 10.8744
rfoot -10.4134 11.6062
rtoes -8.34896e-014
lfemur -10.014 12.0121 -17.9265
ltibia 10.0096
lfoot -2.19077 -16.7219
ltoes 7.95139e-015
260
root -18.9112 16.6321 5.01769 -153.171 85.7574 -162.957
lowerback -13.2854 -1.67962 -0.0654388
upperback -3.96331 -2.01433 -0.514301
thorax 3.26 -0.924135 -0.813191
lowerneck -1.93381 1.59967 8.47518
upperneck 27.2511 3.81931 -5.5168
head 9.07665 2.52937 -2.98327
rclavicle -6.26172e-015 -4.37326e-015
rhumerus -42.4536 -22.2821 -79.1799
rradius 18.4209
rwrist 29.2381
rhand -35.8254 3.08754
rfingers 7.12502
rthumb -8.9413 -26.703
lclavicle -6.26172e-015 -4.37326e-015
lhumerus -42.218 16.1157 80.4698
lradius 23.9208
lwrist -39.6963
lhand -33.1534 3.50458
lfingers 7.12502
lthumb -6.36234 33.389
rfemur -7.54592 -16.3475 20.9706
rtibia 10.8791
rfoot -10.3919 11.5648
rtoes 2.70347e-014
lfemur -10.0172 11.9956 -17.9063
ltibia 10.001
lfoot -2.18512 -16.7205
ltoes 5.40694e-014
261
root -18.9144 16.6335 5.01906 -153.544 85.7228 -163.419
lowerback -13.3277 -1.69904 -0.0932332
upperback -4.00411 -2.03353 -0.514942
thorax 3.24098 -0.932639 -0.801704
lowerneck -1.9411 1.59127 8.45484
upperneck 27.2818 3.80995 -5.50711
head 9.0875 2.52492 -2.97737
rclavicle -6.23687e-015 3.57812e-015
rhumerus -42.4486 -22.2512 -79.2101
rradius 18.4325
rwrist 29.1172
rhand -35.7949 2.96444
rfingers 7.12502
rthumb -8.91187 -26.8274
lclavicle -6.23687e-015 3.57812e-015
lhumerus -42.2462 16.1573 80.4306
lradius 23.8609
lwrist -39.8824
lhand -33.2743 3.47577
lfingers 7.12502
lthumb -6.47907 33.3567
rfemur -7.67191 -16.3924 20.9943
rtibia 10.8986
rfoot -10.3799 11.5673
rtoes -8.66701e-014
lfemur -10.1255 11.953 -17.9381
ltibia 9.96977
lfoot -2.12341 -16.7251
ltoes -4.92986e-014
262
root -18.9147 16.6332 5.01967 -153.498 85.7202 -163.361
lowerback -13.3315 -1.70143 -0.0980887
upperback -3.99215 -2.03687 -0.507817
thorax 3.25595 -0.93446 -0.792426
lowerneck -1.94572 1.59131 8.46504
upperneck 27.2721 3.81319 -5.53143
head 9.08564 2.52461 -2.98725
rclavicle -3.53091e-014 -9.54166e-015
rhumerus -42.4904 -22.4507 -79.0213
rradius 18.3798
rwrist 29.5264
rhand -35.7293 3.06636
rfingers 7.12502
rthumb -8.84861 -26.7281
lclavicle -3.53091e-014 -9.54166e-015
lhumerus -42.2431 16.2351 80.4004
lradius 23.8523
lwrist -39.9977
lhand -33.2594 3.46644
lfingers 7.12502
lthumb -6.46464 33.3478
rfemur -7.66364 -16.3611 20.9961
rtibia 10.9167
rfoot -10.3972 11.5354
rtoes -1.35174e-014
lfemur -10.0999 11.9528 -17.9268
ltibia 9.94262
lfoot -2.10991 -16.7323
ltoes 6.36111e-015
263
root -18.9151 16.6337 5.02078 -153.569 85.7194 -163.425
lowerback -13.3355 -1.69952 -0.100112
upperback -3.98237 -2.03393 -0.518876
thorax 3.26803 -0.933129 -0.802663
lowerneck -1.93627 1.5857 8.45905
upperneck 27.2284 3.79495 -5.50545
head 9.06653 2.51634 -2.97841
rclavicle -5.8393e-015 4.37326e-015
rhumerus -42.4454 -22.3944 -79.1183
rradius 18.4168
rwrist 29.3918
rhand -35.7336 2.92577
rfingers 7.12502
rthumb -8.85275 -26.8685
lclavicle -5.8393e-015 4.37326e-015
lhumerus -42.2276 16.2297 80.3704
lradius 23.8514
lwrist -40.1013
lhand -33.2108 3.47184
lfingers 7.12502
lthumb -6.4177 33.3546
rfemur -7.6591 -16.32 20.9928
rtibia 10.922
rfoot -10.4025 11.4921
rtoes -6.36111e-014
lfemur -10.0926 11.9498 -17.9286
ltibia 9.93318
lfoot -2.10376 -16.7178
ltoes -5.24792e-014
264
root -18.9143 16.6335 5.0206 -153.887 85.7422 -163.757
lowerback -13.3492 -1.69582 -0.111643
upperback -3.99874 -2.02573 -0.535479
thorax 3.25824 -0.92871 -0.812272
lowerneck -1.9179 1.59144 8.46799
upperneck 27.2352 3.80536 -5.50413
head 9.06661 2.52322 -2.97879
rclavicle -1.00138e-014 -3.18055e-015
rhumerus -42.4882 -22.5228 -79.006
rradius 18.3409
rwrist 29.5751
rhand -35.786 3.1022
rfingers 7.12502
rthumb -8.90327 -26.69
lclavicle -1.00138e-014 -3.18055e-015
lhumerus -42.2436 16.1471 80.4066
lradius 23.8567
lwrist -39.9561
lhand -33.222 3.45064
lfingers 7.12502
lthumb -6.42851 33.3331
rfemur -7.67298 -16.362 20.9586
rtibia 10.9326
rfoot -10.4159 11.5402
rtoes 3.97569e-014
lfemur -10.0887 11.9578 -17.975
ltibia 9.91804
lfoot -2.10788 -16.7297
ltoes 3.02153e-014
265
root -18.9123 16.6325 5.02019 -153.108 85.7594 -162.901
lowerback -13.3198 -1.67625 -0.0493171
upperback -3.96806 -2.011 -0.518358
thorax 3.27298 -0.922134 -0.826903
lowerneck -1.90969 1.58618 8.45313
upperneck 27.2289 3.80402 -5.52084
head 9.06248 2.51959 -2.9822
rclavicle 3.59055e-014 7.95139e-015
rhumerus -42.3962 -22.1894 -79.3145
rradius 18.4499
rwrist 28.8062
rhand -35.8213 2.83438
rfingers 7.12502
rthumb -8.93733 -26.9563
lclavicle 3.59055e-014 7.95139e-015
lhumerus -42.2266 16.1561 80.4434
lradius 23.906
lwrist -39.7094
lhand -33.1109 3.50059
lfingers 7.12502
lthumb -6.32126 33.3863
rfemur -7.59812 -16.372 20.99
rtibia 10.9517
rfoot -10.4212 11.5812
rtoes 1.98785e-014
lfemur -9.98702 11.9992 -17.9069
ltibia 9.90153
lfoot -2.11868 -16.7188
ltoes -7.95139e-015
266
root -18.9152 16.6329 5.02211 -153.765 85.7299 -163.615
lowerback -13.3413 -1.69814 -0.102479
upperback -3.9908 -2.03135 -0.517968
thorax 3.26253 -0.931677 -0.799986
lowerneck -1.91754 1.58752 8.43222
upperneck 27.2326 3.80944 -5.52714
head 9.06525 2.51945 -2.98028
rclavicle -7.62836e-015 3.18055e-015
rhumerus -42.4271 -22.3424 -79.1441
rradius 18.3988
rwrist 29.2234
rhand -35.7988 3.02233
rfingers 7.12502
rthumb -8.91565 -26.7693
lclavicle -7.62836e-015 3.18055e-015
lhumerus -42.212 16.2258 80.385
lradius 23.8137
lwrist -39.9822
lhand -33.2507 3.43769
lfingers 7.12502
lthumb -6.45628 33.3193
rfemur -7.66732 -16.3862 20.9786
rtibia 10.9581
rfoot -10.4283 11.5581
rtoes -5.80451e-014
lfemur -10.0682 11.9525 -17.9456
ltibia 9.90166
lfoot -2.10493 -16.7228
ltoes -6.83819e-014
267
root -18.9153 16.6337 5.02211 -154.085 85.731 -163.944
lowerback -13.3511 -1.69849 -0.11488
upperback -3.99617 -2.02901 -0.532851
thorax 3.2621 -0.930353 -0.808336
lowerneck -1.92433 1.58033 8.43241
upperneck 27.2412 3.79586 -5.51366
head 9.0683 2.51448 -2.97679
rclavicle 1.17034e-014 3.97569e-016
rhumerus -42.4295 -22.3471 -79.1842
rradius 18.4047
rwrist 29.1232
rhand -35.8703 2.99661
rfingers 7.12502
rthumb -8.98461 -26.7921
lclavicle 1.17034e-014 3.97569e-016
lhumerus -42.2632 16.3747 80.2355
lradius 23.8366
lwrist -40.4186
lhand -33.0551 3.37218
lfingers 7.12502
lthumb -6.26736 33.2595
rfemur -7.67838 -16.4421 20.9556
rtibia 10.9579
rfoot -10.4283 11.6022
rtoes -7.95139e-015
lfemur -10.0795 11.9422 -17.9749
ltibia 9.91108
lfoot -2.11107 -16.7058
ltoes 1.43125e-014
